<svg width="57" height="43" viewBox="0 0 57 43" fill="none" xmlns="http://www.w3.org/2000/svg">
<g clip-path="url(#clip0_2011_1567)">
<path d="M51.3783 39.1936C54.5134 35.7449 56.3945 31.9827 56.3945 25.7123C56.3945 14.7392 48.5566 5.02018 37.5835 0.00390625L34.7618 4.07963C45.1079 9.72295 47.3025 16.9338 47.9296 21.6366C46.362 20.6961 44.1674 20.3825 41.9727 20.6961C36.3294 21.3231 31.9402 25.7123 31.9402 31.6692C31.9402 34.4908 33.1942 37.3125 35.0753 39.5071C37.27 41.7017 39.7781 42.6423 42.9133 42.6423C46.362 42.6423 49.4972 41.0747 51.3783 39.1936ZM20.0265 39.1936C23.1617 35.7449 25.0428 31.9827 25.0428 25.7123C25.0428 14.7392 17.2049 5.02018 6.2317 0.00390625L3.4101 4.07963C13.7562 9.72295 15.9508 16.9338 16.5778 21.6366C15.0102 20.6961 12.8156 20.3825 10.621 20.6961C4.9777 21.3231 0.588402 25.7123 0.588402 31.6692C0.588402 34.4908 1.8425 37.3125 3.7236 39.5071C5.6047 41.7017 8.4264 42.6423 11.5615 42.6423C15.0102 42.6423 18.1454 41.0747 20.0265 39.1936Z" fill="#DFE1DE"/>
</g>
<defs>
<clipPath id="clip0_2011_1567">
<rect width="57" height="43" fill="white" transform="matrix(-1 0 0 1 57 0)"/>
</clipPath>
</defs>
</svg>
