<svg width="58" height="59" viewBox="0 0 58 59" fill="none" xmlns="http://www.w3.org/2000/svg">
<mask id="mask0_139_332" style="mask-type:luminance" maskUnits="userSpaceOnUse" x="0" y="0" width="58" height="59">
<path d="M0 0.795898H58V58.7959H0V0.795898Z" fill="white"/>
</mask>
<g mask="url(#mask0_139_332)">
<path d="M7.2504 6.59568H15.9504C19.9494 6.59568 23.2002 9.84968 23.2002 13.8461V22.5461C23.2002 26.5419 19.9494 29.7959 15.9504 29.7959H7.2504C6.7544 29.7959 6.2701 29.7438 5.8002 29.6477V35.5961C5.8002 41.9931 11.003 47.1959 17.4 47.1959H20.3004C21.904 47.1959 23.2002 48.4952 23.2002 50.0957C23.2002 51.6967 21.904 52.9961 20.3004 52.9961H17.4C7.8042 52.9961 0 45.1919 0 35.5961V13.8461C0 9.84968 3.2508 6.59568 7.2504 6.59568Z" fill="white" fill-opacity="0.2"/>
<path d="M42.0502 6.59568H50.7502C54.7492 6.59568 58 9.84968 58 13.8461V22.5461C58 26.5419 54.7492 29.7959 50.7502 29.7959H42.0502C41.5542 29.7959 41.0699 29.7438 40.6 29.6477V35.5961C40.6 41.9931 45.8028 47.1959 52.1998 47.1959H55.1002C56.7038 47.1959 58 48.4952 58 50.0957C58 51.6967 56.7038 52.9961 55.1002 52.9961H52.1998C42.604 52.9961 34.7998 45.1919 34.7998 35.5961V13.8461C34.7998 9.84968 38.0506 6.59568 42.0502 6.59568Z" fill="white" fill-opacity="0.2"/>
</g>
</svg>
